<?xml version="1.0" encoding="iso-8859-1"?>
<!-- Generator: Adobe Illustrator 19.0.0, SVG Export Plug-In . SVG Version: 6.00 Build 0)  -->
<svg version="1.1" id="Layer_1" xmlns="http://www.w3.org/2000/svg" xmlns:xlink="http://www.w3.org/1999/xlink" x="0px" y="0px"
	 viewBox="0 0 512 512" style="enable-background:new 0 0 512 512;" xml:space="preserve">
<path style="fill:#507C5C;" d="M389.074,511.999H122.926c-32.605,0-59.131-26.527-59.131-59.131V385.16
	c0-7.789,6.315-14.106,14.106-14.106s14.106,6.317,14.106,14.106v67.708c0,17.05,13.87,30.92,30.92,30.92h266.148
	c17.048,0,30.92-13.87,30.92-30.92c0-7.789,6.315-14.106,14.106-14.106c7.791,0,14.106,6.317,14.106,14.106
	C448.205,485.471,421.678,511.999,389.074,511.999z"/>
<path style="fill:#CFF09E;" d="M77.9,385.16v67.708c0,24.856,20.156,45.026,45.025,45.026h19.864V385.16H77.9z"/>
<g>
	<path style="fill:#507C5C;" d="M142.789,512h-19.864c-32.605,0-59.131-26.527-59.131-59.133V385.16
		c0-7.789,6.315-14.106,14.106-14.106h64.889c7.791,0,14.106,6.317,14.106,14.106v112.734C156.895,505.683,150.58,512,142.789,512z
		 M92.006,399.266v53.602c0,17.05,13.87,30.921,30.92,30.921h5.758v-84.523H92.006z"/>
	<path style="fill:#507C5C;" d="M389.074,437.24H122.926c-32.605,0-59.131-26.527-59.131-59.131v-67.708
		c0-7.789,6.315-14.106,14.106-14.106s14.106,6.317,14.106,14.106v67.708c0,17.05,13.87,30.92,30.92,30.92h266.148
		c17.048,0,30.92-13.87,30.92-30.92v-67.708c0-7.789,6.315-14.106,14.106-14.106c7.791,0,14.106,6.317,14.106,14.106v67.708
		C448.205,410.712,421.678,437.24,389.074,437.24z"/>
</g>
<path style="fill:#CFF09E;" d="M77.9,310.401v67.707c0,24.856,20.156,45.026,45.025,45.026h19.864V310.401H77.9z"/>
<g>
	<path style="fill:#507C5C;" d="M142.789,437.241h-19.864c-32.605,0-59.131-26.527-59.131-59.133v-67.708
		c0-7.789,6.315-14.106,14.106-14.106h64.889c7.791,0,14.106,6.317,14.106,14.106v112.734
		C156.895,430.924,150.58,437.241,142.789,437.241z M92.006,324.507v53.602c0,17.05,13.87,30.921,30.92,30.921h5.758v-84.523
		L92.006,324.507L92.006,324.507z"/>
	<path style="fill:#507C5C;" d="M389.074,366.828H122.926c-32.605,0-59.131-26.527-59.131-59.131V130.062
		c0-1.632,0.063-3.342,0.19-5.082c1.226-16.264,8.235-31.529,19.74-43.015l62.04-62.041c12.255-12.272,28.563-19.338,45.91-19.888
		C192.446,0.016,193.16,0,193.856,0h195.218c32.605,0,59.131,26.527,59.131,59.131v154.525c0,7.789-6.315,14.106-14.106,14.106
		c-7.791,0-14.106-6.317-14.106-14.106V59.131c0-17.05-13.87-30.92-30.92-30.92H193.856c-0.45,0-0.911,0.013-1.361,0.024
		c-10.069,0.32-19.603,4.45-26.773,11.63l-62.055,62.055c-6.733,6.723-10.832,15.65-11.547,25.145
		c-0.075,1.024-0.114,2.044-0.114,2.996v177.635c0,17.05,13.87,30.92,30.92,30.92h266.148c17.048,0,30.92-13.87,30.92-30.92v-15.973
		c0-7.789,6.315-14.106,14.106-14.106c7.791,0,14.106,6.317,14.106,14.106v15.973C448.205,340.301,421.678,366.828,389.074,366.828z
		"/>
</g>
<path style="fill:#CFF09E;" d="M142.789,42.849L93.692,91.947c-9.148,9.133-14.673,21.247-15.638,34.06
	c-0.097,1.343-0.154,2.7-0.154,4.057v177.635c0,24.856,20.156,45.025,45.025,45.025h19.864V42.849z"/>
<path style="fill:#507C5C;" d="M142.789,366.828h-19.864c-32.605,0-59.131-26.527-59.131-59.131V130.062
	c0-1.632,0.063-3.342,0.19-5.081c1.226-16.264,8.235-31.529,19.74-43.017l49.091-49.091c4.034-4.033,10.101-5.239,15.371-3.058
	c5.271,2.184,8.707,7.327,8.707,13.032v309.873C156.895,360.512,150.58,366.828,142.789,366.828z M128.684,76.903l-25.018,25.018
	c-6.733,6.724-10.83,15.65-11.547,25.145c-0.075,1.025-0.114,2.044-0.114,2.996v177.635c0,17.05,13.87,30.92,30.92,30.92h5.758
	V76.903H128.684z"/>
<path style="fill:#CFF09E;" d="M192.121,16.646v86.63c0,12.553-10.176,22.73-22.73,22.73H80.683c-1.436,0-2.538-1.267-2.358-2.691
	c1.49-11.809,6.862-22.877,15.367-31.368l62.048-62.048c9.077-9.09,21.074-14.599,33.785-15.619
	C190.918,14.168,192.121,15.247,192.121,16.646z"/>
<path style="fill:#507C5C;" d="M169.391,140.111H80.683c-4.727,0-9.231-2.034-12.358-5.58c-3.131-3.552-4.587-8.283-3.995-12.982
	c1.88-14.917,8.77-28.976,19.395-39.585l62.04-62.04c11.397-11.413,26.54-18.414,42.632-19.704
	c9.729-0.779,17.831,6.903,17.831,16.428v86.63C206.227,123.586,189.702,140.111,169.391,140.111z M96.403,111.899h72.99
	c4.755,0,8.624-3.868,8.624-8.623v-71.78c-4.555,1.976-8.736,4.804-12.295,8.369l-62.055,62.055
	C100.732,104.851,98.285,108.232,96.403,111.899z"/>
<g>
</g>
<g>
</g>
<g>
</g>
<g>
</g>
<g>
</g>
<g>
</g>
<g>
</g>
<g>
</g>
<g>
</g>
<g>
</g>
<g>
</g>
<g>
</g>
<g>
</g>
<g>
</g>
<g>
</g>
</svg>
